<svg width="580" height="518" viewBox="0 0 580 518" fill="none" xmlns="http://www.w3.org/2000/svg">
<path fill-rule="evenodd" clip-rule="evenodd" d="M146.565 1.17119C133.857 3.45243 115.39 10.456 104.733 17.036C84.7264 29.3892 66.2281 50.5959 57.7973 70.8439C50.2987 88.8574 48.618 97.7031 48.7138 118.672C48.7928 135.996 49.1929 139.445 52.3148 149.748C58.8603 171.355 69.3746 188.829 84.6643 203.517L93.1974 211.715L89.1406 213.91C40.6663 240.14 8.07079 287.514 1.3932 341.436C-0.709649 358.412 -0.361333 399.175 1.96164 408.124C7.81052 430.652 25.0127 447.966 47.3464 453.803C53.2458 455.345 62.6077 455.792 88.9749 455.792H122.992L123.593 458.715C123.924 460.323 124.542 464.335 124.965 467.631C126.04 475.987 133.21 490.294 140.19 498.013C147.646 506.257 158.653 512.914 169.551 515.768C177.289 517.795 188.372 518 290.078 518C391.784 518 402.867 517.795 410.605 515.768C421.504 512.914 432.51 506.257 439.966 498.013C446.946 490.294 454.116 475.987 455.191 467.631C455.614 464.335 456.232 460.323 456.563 458.715L457.164 455.792H491.181C528.01 455.792 533.934 455.015 546.736 448.507C562.005 440.744 575.268 422.996 578.894 405.476C581.112 394.754 579.755 341.401 576.942 328.806C566.129 280.368 537.957 241.363 496.05 216.807L487.11 211.569L495.568 203.444C510.77 188.841 521.288 171.347 527.853 149.748C531.038 139.268 531.376 136.23 531.376 118.023C531.376 99.8154 531.038 96.7768 527.853 86.2969C521.168 64.3029 510.602 46.8948 494.942 32.0719C461.02 -0.0317934 411.883 -8.84108 367.982 9.31013C348.778 17.2516 327.551 35.269 315.643 53.7411L309.795 62.8102L290.076 62.6972L270.355 62.5842L263.96 52.9538C247.762 28.5643 223.853 11.4121 194.906 3.41476C184.359 0.500845 157.298 -0.755394 146.565 1.17119ZM190.529 45.571C206.033 51.2741 219.336 61.0564 227.332 72.6328L231.117 78.1125L227.948 80.2053C209.37 92.4703 194.757 109.114 185.231 128.864C176.502 146.962 174.733 154.352 173.912 176.158L173.215 194.67H165.168C131.498 194.67 100.45 170.146 91.9608 136.845C81.6265 96.3039 105.882 54.9869 146.499 43.9432C159.578 40.3862 178.32 41.0799 190.529 45.571ZM433.146 43.9692C473.946 54.4387 498.6 96.0324 488.195 136.845C481.28 163.973 460.185 185.137 433.146 192.076C427.584 193.502 419.77 194.67 415.779 194.67H408.524L408.357 180.055C408.167 163.307 405.987 151.623 400.293 136.806C392.558 116.684 375.421 95.0698 357.72 83.1115C348.439 76.8406 348.435 77.0719 358.045 66.3477C376.637 45.6009 405.725 36.9332 433.146 43.9692ZM314.68 107.566C337.763 115.493 356.608 134.84 364.077 158.276C367.841 170.088 367.843 190.666 364.082 202.465C353.758 234.844 323.966 256.989 290.726 256.989C270.181 256.989 252.231 249.256 236.878 233.793C221.355 218.161 215.007 202.656 215.007 180.38C215.007 158.052 221.375 142.526 236.878 127.059C247.687 116.274 260.01 108.947 272.785 105.711C283.688 102.948 303.832 103.84 314.68 107.566ZM181.528 237.33C187.211 238.139 187.905 238.692 193.144 246.579C196.209 251.192 202.954 259.179 208.134 264.326L217.554 273.685L209.004 278.399C181.485 293.576 155.562 320.643 141.219 349.172C133.06 365.404 124.336 396.719 124.336 409.779V414.34L89.4669 413.955C56.5917 413.593 54.3931 413.417 51.0251 410.892C42.5386 404.53 42.1515 403.167 41.6944 378.079C41.2295 352.546 42.6267 339.655 47.5575 323.963C60.0581 284.186 91.1023 253.686 131.458 241.536C147.01 236.854 166.612 235.206 181.528 237.33ZM430.801 237.637C477.827 244.116 518.428 278.538 532.618 323.963C537.533 339.701 538.925 352.589 538.462 378.079C538.005 403.167 537.618 404.53 529.131 410.892C525.763 413.417 523.564 413.593 490.689 413.955L455.82 414.34V409.612C455.82 396.891 446.935 365.08 438.938 349.172C424.848 321.147 398.541 293.453 372.302 279.029C368.029 276.681 364.353 274.632 364.132 274.477C363.912 274.323 368.003 269.894 373.222 264.638C378.443 259.38 385.224 251.279 388.293 246.635C393.091 239.375 394.541 238.08 398.626 237.401C406.624 236.07 420.153 236.17 430.801 237.637ZM319.593 302.429C361.604 312.809 395.929 344.778 408.94 385.64C413.917 401.269 414.856 409.09 414.945 435.656C415.029 460.91 414.945 461.778 411.918 466.663C410 469.76 406.771 472.615 403.501 474.104C398.468 476.397 392.675 476.522 289.607 476.549L181.015 476.578L175.919 473.704C173.116 472.124 169.541 468.762 167.974 466.234C165.278 461.887 165.128 460.231 165.19 435.656C165.259 409.06 166.172 401.483 171.217 385.64C183.146 348.171 213.092 317.986 251.067 305.151C271.775 298.151 298.057 297.108 319.593 302.429Z" fill="#6868B4"/>
</svg>
