<svg width="831" height="831" viewBox="0 0 831 831" fill="none" xmlns="http://www.w3.org/2000/svg">
<path fill-rule="evenodd" clip-rule="evenodd" d="M388.189 4.12722C358.077 14.3309 104.233 107.272 98.3799 110.236C78.3388 120.388 65.6314 146.088 69.6809 168.276C70.5876 173.243 73.8864 184.164 77.0096 192.544C80.1345 200.925 82.6906 208.331 82.6906 209.002C82.6906 209.672 77.8302 211.137 71.8876 212.257C50.2655 216.334 26.4203 232.525 14.3385 251.336C11.4444 255.84 7.17713 264.404 4.85339 270.367L0.628407 281.21L0.189659 515.73C-0.239339 745.32 -0.18084 750.52 2.9879 763.037C7.23888 779.834 14.2589 791.877 27.3254 804.79C39.6282 816.949 54.2158 824.853 70.8492 828.375C87.3803 831.875 695.498 831.875 712.029 828.375C735.904 823.321 759.513 806.105 771.421 785.069C781.863 766.618 783.063 757.342 783.063 694.944V639.193L786.719 639.177C793.146 639.149 807.082 631.515 814.82 623.784C818.946 619.662 824.274 612.129 826.661 607.041L831 597.794V519.054V440.314L826.773 431.31C819.256 415.299 806.981 404.558 790.723 399.767L783.875 397.749L783.011 339.48C782.154 281.808 782.104 281.098 777.973 270.367C766.077 239.457 739.791 217.269 708.77 211.953L697.153 209.963L696.639 173.299L696.126 136.634L690.784 125.804C684.877 113.824 675.397 104.388 663.164 98.3131L655.501 94.5076L569.417 93.6959L483.333 92.8841L472.565 63.2308C459.749 27.9294 457.752 23.9518 448.598 15.4836C438.85 6.46507 426.458 1.14322 413.035 0.212956C403.844 -0.425081 399.694 0.22919 388.189 4.12722ZM413.72 49.5366C416.009 50.9913 418.69 57.1297 426.188 78.0891L431.617 93.2657L418.208 94.1018C407.15 94.7917 403.052 95.8681 394.839 100.242C382.91 106.593 374.702 115.253 368.909 127.595C364.737 136.485 364.614 137.667 364.11 173.653L363.595 210.588L249.548 210.58L135.503 210.57L126.156 185.12C117.842 162.482 117.054 159.3 119.024 156.313C120.655 153.837 158.773 139.245 264.058 100.794C342.608 72.1065 407.974 48.556 409.314 48.4602C410.655 48.3661 412.637 48.8499 413.72 49.5366ZM645.635 144.951C647.78 147.096 648.188 152.535 648.188 179.045V210.588H530.376H412.564V179.045C412.564 152.535 412.972 147.096 415.117 144.951C417.39 142.682 430.083 142.401 530.376 142.401C630.669 142.401 643.362 142.682 645.635 144.951ZM707.098 261.61C716.085 264.815 723.906 271.4 728.996 280.048L733.5 287.704L733.986 342.384L734.472 397.065L677.924 397.606L621.376 398.147L608.376 402.691C567.155 417.101 538.036 447.663 526.902 488.207C523.28 501.4 522.864 533.67 526.151 546.536C535.139 581.721 559.04 611.72 590.285 627.031C615.562 639.417 617.52 639.711 679.469 640.42L734.313 641.047V694.218C734.313 754.072 733.764 757.735 723.141 768.669C719.824 772.085 714.217 776.312 710.681 778.064C704.359 781.196 698.973 781.249 391.439 781.249C83.9061 781.249 78.5192 781.196 72.198 778.064C68.662 776.312 63.0395 772.068 59.7034 768.635C47.7467 756.325 48.4731 773.286 48.9492 517.351L49.3782 287.704L53.8827 280.048C58.9722 271.4 66.7933 264.815 75.7811 261.61C84.8323 258.382 698.046 258.382 707.098 261.61ZM780.51 448.547C782.749 450.785 783.063 459.403 783.063 518.636C783.063 579.201 782.785 586.479 780.373 589.142C777.846 591.931 773.433 592.111 707.59 592.111C631.719 592.111 627.71 591.736 610.516 583.031C593.272 574.301 577.85 553.79 573.642 533.991C567.192 503.643 580.961 472.282 607.796 456.203C623.917 446.543 627.067 446.22 706.166 446.103C769.356 446.009 778.261 446.301 780.51 448.547ZM633.918 497.401C616.381 506.036 616.654 531.589 634.376 540.159C638.068 541.945 642.821 543.406 644.938 543.406C652.184 543.406 662.023 537.251 665.958 530.259C677.49 509.759 655.213 486.915 633.918 497.401Z" fill="#6868B4"/>
</svg>
