<svg width="1358" height="406" viewBox="0 0 1358 406" fill="none" xmlns="http://www.w3.org/2000/svg">
<path fill-rule="evenodd" clip-rule="evenodd" d="M210 173.966V274.932H223.186H236.372V173.966V73H223.186H210V173.966ZM260.546 87.2669V101.534H274.831H289.116V87.2669V73H274.831H260.546V87.2669ZM520.673 127.939C507.66 131.949 492.672 143.926 485.367 156.15C476.366 171.214 472.867 188.132 474.328 209.513C476.339 238.896 489.829 260.795 512.878 272.101C523.387 277.254 527.976 278.189 541.847 277.996C561.031 277.731 570.914 274.041 583.996 262.261C592.367 254.721 601.019 240.345 601.136 233.778C601.169 231.912 597.347 231.034 589.2 231.034C577.676 231.034 577.078 231.326 573.582 238.681C563.949 258.958 530.56 262.59 514.093 245.152C507.801 238.488 500.092 221.436 500.092 214.181C500.092 211.857 510.401 211.28 551.805 211.28C598.239 211.28 603.665 210.902 604.938 207.588C607.193 201.719 601.817 170.643 596.872 160.961C590.414 148.316 579.913 137.107 569.527 131.769C559.323 126.527 532.167 124.398 520.673 127.939ZM681.017 128.196C670.279 130.052 661.451 134.308 652.192 142.089L645.533 147.684L644.043 138.876C642.568 130.151 642.463 130.068 632.857 130.068H623.161V231.034V332H635.248H647.335V296.499V260.997L652.28 265.514C662.811 275.13 671.874 278.161 690.19 278.194C705.784 278.22 709.138 277.459 719.858 271.455C733.2 263.984 744.342 249.875 748.913 234.671C750.421 229.653 751.612 215.176 751.557 202.5C751.476 184.109 750.483 176.98 746.628 167.208C741.077 153.13 729.047 138.106 719.289 133.066C710.448 128.501 692.475 126.211 681.017 128.196ZM817.342 128.073C797.187 133.905 777.573 156.165 772.734 178.694C765.657 211.653 776.457 248.591 797.961 264.972C819.797 281.605 855.542 281.543 877.477 264.833C885.982 258.356 894.744 245.814 896.876 237.07L898.346 231.034H885.966C875.163 231.034 873.341 231.662 871.664 235.972C870.607 238.688 866.697 243.791 862.977 247.311C857.647 252.353 853.656 253.922 844.176 254.708C837.558 255.257 829.7 255.092 826.715 254.344C814.026 251.163 801.064 234.511 797.814 217.213L796.286 209.085H849.558H902.829L901.82 192.074C899.465 152.324 873.774 125.463 838.532 125.897C830.675 125.994 821.14 126.973 817.342 128.073ZM964.601 127.939C951.589 131.949 936.601 143.926 929.296 156.15C920.294 171.214 916.795 188.132 918.257 209.513C920.268 238.896 933.757 260.795 956.806 272.101C967.315 277.254 971.904 278.189 985.776 277.996C1004.9 277.733 1014.86 274.034 1027.74 262.41C1036.66 254.359 1045.11 240.742 1045.11 234.414C1045.11 231.785 1042.45 231.034 1033.13 231.034C1021.6 231.034 1021.01 231.326 1017.51 238.681C1007.82 259.078 974.484 262.586 957.837 244.956C951.967 238.74 944.02 220.404 944.02 213.075C944.02 212.087 967.878 211.28 997.039 211.28H1050.06L1049.07 193.172C1047.5 164.324 1035.11 143.075 1013.25 131.714C1003.26 126.525 976.044 124.414 964.601 127.939ZM260.546 202.5V274.932H273.732H286.918V202.5V130.068H273.732H260.546V202.5ZM308.895 143.237V156.407H324.279H339.662V143.237V130.068H324.279H308.895V143.237ZM374.825 143.237V156.407H389.11H403.394V143.237V130.068H389.11H374.825V143.237ZM438.557 143.237V156.407H452.842H467.127V143.237V130.068H452.842H438.557V143.237ZM1067.09 202.5V274.932H1080.24H1093.38L1093.97 223.18L1094.56 171.431L1120.8 160.577C1135.23 154.607 1147.41 149.348 1147.87 148.889C1148.33 148.43 1147.52 144.085 1146.06 139.232L1143.41 130.41L1119.35 139.019C1106.12 143.753 1094.43 147.627 1093.36 147.627C1092.3 147.627 1090.37 143.676 1089.07 138.847C1086.75 130.27 1086.47 130.068 1076.89 130.068H1067.09V202.5ZM561.659 152.566C570.173 158.343 576.599 169.708 577.482 180.551L578.109 188.233H539.65H501.191L501.966 181.666C503.593 167.921 514.258 153.793 526.464 149.212C528.277 148.531 535.301 147.895 542.072 147.801C551.416 147.669 556.137 148.817 561.659 152.566ZM713.355 157.897C723.645 168.913 726.423 178.444 726.438 202.772C726.462 239.375 713.571 257.373 687.328 257.373C674.815 257.373 664.514 251.528 656.75 240.02C649.99 230 647.362 219.473 647.348 202.351C647.331 182.858 652.139 167.737 661.011 159.379C672.235 148.806 675.881 147.452 691.009 148.239C704.171 148.922 705.521 149.506 713.355 157.897ZM858.535 152.594C867.051 158.259 873.24 169.33 874.163 180.551L874.794 188.233L836.884 188.834L798.974 189.434L799.022 183.347C799.095 174.225 806.431 159.84 813.551 154.857C822.377 148.681 824.821 147.996 838.756 147.801C848.081 147.669 852.878 148.832 858.535 152.594ZM1005.59 152.566C1014.1 158.343 1020.53 169.708 1021.41 180.551L1022.04 188.233L984.127 188.834L946.218 189.434V182.711C946.218 169.829 957.643 153.995 970.392 149.212C972.205 148.531 979.229 147.895 986 147.801C995.344 147.669 1000.06 148.817 1005.59 152.566ZM341.86 203.597V217.864H356.145H370.43V203.597V189.331H356.145H341.86V203.597ZM407.79 203.597V217.864H422.075H436.359V203.597V189.331H422.075H407.79V203.597ZM374.825 262.86V277.127H389.11H403.394V262.86V248.593H389.11H374.825V262.86Z" fill="white"/>
<rect x="309" y="130" width="30" height="26" fill="#45FF8F"/>
<rect x="374" y="130" width="31" height="26" fill="#45FF8F"/>
<rect x="436" y="130" width="31" height="26" fill="#45FF8F"/>
<rect x="408" y="189" width="29" height="28" fill="#45FF8F"/>
<rect x="342" y="189" width="29" height="29" fill="#45FF8F"/>
<rect x="374" y="248" width="30" height="29" fill="#45FF8F"/>
</svg>
