<svg width="1358" height="406" viewBox="0 0 1358 406" fill="none" xmlns="http://www.w3.org/2000/svg">
<path fill-rule="evenodd" clip-rule="evenodd" d="M181.77 76.7701C181.346 77.1927 181 134.343 181 203.77V330H299.874H418.747V314.991V299.982H314.877H211.007V203V106.018H314.877H418.747V91.0091V76H300.643C235.685 76 182.192 76.3464 181.77 76.7701ZM398.211 126.289C383.38 130.282 372.714 138.543 366.667 150.722C364.262 155.567 363.927 157.863 363.927 169.518C363.927 182.08 364.112 183.129 367.352 188.983C374.486 201.865 383.792 207.144 411.573 214.066C437.316 220.48 441.138 222.854 443.517 233.9C444.619 239.018 440.835 246.584 435.295 250.336C431.416 252.964 429.942 253.223 418.832 253.223C409.131 253.223 405.801 252.781 402.59 251.067C394.031 246.5 390.302 241.248 388.136 230.709L386.83 224.359L372.759 224.035C356.228 223.654 356.604 223.343 358.622 235.699C362.337 258.445 377.018 274.032 400.243 279.889C410.844 282.562 432.69 281.622 442.749 278.06C452.252 274.696 459.848 269.384 465.196 262.362C471.689 253.838 473.514 247.298 473.392 232.974C473.303 222.324 472.908 220.001 470.22 214.316C463.768 200.672 451.027 193.308 423.596 187.366C408.622 184.124 400.512 180.955 396.644 176.837C394.502 174.555 393.934 172.664 393.934 167.814C393.934 158.184 399.245 153.796 412.387 152.568C426.847 151.217 436.776 156.76 440.682 168.364L442.82 174.714L456.367 175.04C463.818 175.22 470.325 174.956 470.828 174.453C471.33 173.95 471.233 169.906 470.612 165.467C467.831 145.579 454.13 131.101 433.484 126.232C424.415 124.093 406.258 124.121 398.211 126.289ZM540.733 127.535C540.291 127.978 539.929 162.299 539.929 203.805V279.269L554.644 278.946L569.359 278.623V203V127.377L555.448 127.055C547.796 126.877 541.175 127.094 540.733 127.535ZM616.606 146.139C609.785 156.775 600.65 170.976 596.303 177.696L588.402 189.916V203.075V216.236L609.354 247.718L630.307 279.2H647.44C657.388 279.2 664.574 278.744 664.574 278.112C664.574 277.514 655.731 264 644.921 248.082C634.113 232.163 622.902 215.475 620.007 210.999L614.745 202.861L631.826 176.088C641.221 161.361 651.911 144.714 655.581 139.092C659.252 133.471 661.968 128.406 661.616 127.836C661.264 127.266 653.783 126.8 644.992 126.8H629.007L616.606 146.139ZM750.68 128.82C748.606 135.706 715.355 276.273 715.355 278.151C715.355 278.829 721.343 279.141 730.633 278.945L745.911 278.623L748.648 266.5C750.155 259.832 751.872 252.419 752.464 250.026L753.542 245.673L778.531 245.985L803.521 246.295L806.929 262.012L810.337 277.73L819.686 278.458C832.149 279.429 837.958 279.36 839.751 278.223C840.905 277.491 837.381 261.069 823.838 204.062C814.271 163.79 806.168 129.932 805.831 128.82C805.272 126.971 802.933 126.8 778.254 126.8C753.573 126.8 751.236 126.971 750.68 128.82ZM915.819 127.535C915.377 127.978 915.016 162.283 915.016 203.77V279.2H964.066H1013.12V264.768V250.336H979.08H945.044L944.745 188.857L944.446 127.377L930.534 127.055C922.883 126.877 916.261 127.094 915.819 127.535ZM1078.9 203V279.2H1127.95H1177V264.768V250.336H1142.38H1107.75V203V155.664H1142.38H1177V141.232V126.8H1127.95H1078.9V203ZM782.654 156.53C789.486 187.037 795.132 211.778 795.697 213.68C796.251 215.543 794.902 215.7 778.331 215.7C768.45 215.7 760.365 215.291 760.365 214.791C760.365 214.291 764 198.075 768.444 178.755C772.887 159.434 776.523 143.477 776.523 143.295C776.523 143.113 777.219 142.964 778.069 142.964C779.102 142.964 780.625 147.471 782.654 156.53ZM1127.37 203.577V218.009H1141.22H1155.07V203.577V189.145H1141.22H1127.37V203.577Z" fill="white"/>
</svg>
