<svg width="1027" height="307" viewBox="0 0 1027 307" fill="none" xmlns="http://www.w3.org/2000/svg">
<path fill-rule="evenodd" clip-rule="evenodd" d="M103.689 52.108C98.7958 52.7947 94.1142 55.1074 90.6769 58.5357C87.9245 61.281 86.3817 63.693 85.0486 67.3354L84.1293 69.8478L84.0394 153.075C83.9509 235.032 83.9598 236.342 84.6286 238.982C85.7541 243.425 87.1607 245.854 90.643 249.37C93.1026 251.853 94.2666 252.745 96.3162 253.722C101.472 256.177 94.349 255.997 186.216 255.997C278.195 255.997 271.037 256.181 276.121 253.69C279.917 251.829 284.111 247.592 286.031 243.677C288.678 238.275 288.493 245.395 288.392 152.996L288.303 70.1903L287.334 67.4501C284.717 60.0462 279.42 55.0584 271.58 52.6128C269.925 52.0967 262.825 52.0456 187.245 52.0062C141.855 51.9826 104.255 52.0282 103.689 52.108ZM712.701 88.1917C703.39 89.1042 696.095 93.6375 692.712 100.614C689.841 106.535 689.967 104.127 689.962 153.166L689.958 196.409H699.566H709.174V169.35V142.291H717.924H726.674V134.07V125.85H717.924H709.174L709.181 120.969C709.198 108.338 711.146 106.014 722.207 105.431L726.686 105.195L726.594 96.5985L726.503 88.0013L721.012 87.9581C717.993 87.9345 714.252 88.0397 712.701 88.1917ZM735.757 88.2527C735.666 88.4911 735.631 112.885 735.68 142.462L735.768 196.238H745.376H754.984V142.119V88.0013L745.453 87.9102C738.013 87.8393 735.886 87.9143 735.757 88.2527ZM922.846 88.053C922.717 88.1815 922.612 98.2238 922.612 110.369V132.451L920.982 130.935C912.515 123.062 896.011 122.038 884.703 128.684C880.131 131.371 875.257 136.342 872.531 141.098C870.679 144.329 868.872 149.414 868.171 153.364C867.451 157.425 867.452 164.766 868.172 168.868C869.944 178.954 875.371 187.41 883.57 192.861C892.308 198.669 905.615 199.69 915.208 195.288C918.102 193.96 920.921 191.835 922.869 189.515L924.328 187.778V192.099V196.42L933.164 196.329L942 196.238V142.119V88.0013L932.54 87.9105C927.337 87.8602 922.975 87.9246 922.846 88.053ZM370.487 105.127V112.149H377.342H384.198L384.291 119.085L384.384 126.021L391.504 126.113L398.625 126.206V112.156V98.1056H384.556H370.487V105.127ZM241.806 135.44V172.432H223.448H205.089V153.936V135.44H186.387H167.686V116.944V98.4482H204.746H241.806V135.44ZM857.414 115.232V125.85H847.804H838.195L838.282 161.044L838.369 196.238H847.977H857.586L857.673 161.215L857.76 126.192H868.225H878.689V115.403V104.614H868.052H857.414V115.232ZM514.78 124.464C511.001 124.895 508.173 125.725 504.725 127.416C502.204 128.651 500.994 129.518 498.977 131.531L496.422 134.081V129.965V125.85H487.5H478.578V173.802V221.755H488.358H498.138V205.801V189.846L500.086 191.58C509.062 199.565 525.64 200.171 536.814 192.923C538.284 191.969 540.806 189.858 542.418 188.233C547.305 183.303 550.022 178.51 551.942 171.43C552.767 168.39 552.832 167.627 552.832 160.958C552.832 154.221 552.773 153.548 551.907 150.348C550.793 146.229 548.229 140.873 545.92 137.838C542.079 132.789 536.661 128.585 531.349 126.532C526.648 124.715 519.93 123.876 514.78 124.464ZM591.765 124.471C581.028 125.827 571.672 131.809 565.367 141.348C563.03 144.882 561.452 148.758 560.518 153.251C559.593 157.708 559.784 166.766 560.892 170.891C563.868 181.98 573.506 192.119 584.681 195.918C589.245 197.469 592.324 197.921 598.165 197.896C608.161 197.853 616.317 195.198 624.007 189.484L626.768 187.433L622.978 181.217C620.895 177.798 619.048 174.826 618.875 174.611C618.652 174.333 617.894 174.67 616.256 175.776C610.71 179.517 605.528 181.122 599.023 181.112C592.164 181.101 588.016 179.598 584.071 175.694C582.155 173.799 580.305 170.759 579.637 168.41L579.419 167.642L604.062 167.554L628.706 167.466L629.152 165.411C629.397 164.28 629.683 161.121 629.787 158.389C629.944 154.248 629.862 152.881 629.296 150.169C627.807 143.035 625.099 138.16 619.866 133.187C615.192 128.746 610.532 126.273 604.514 125.041C601.294 124.381 594.777 124.09 591.765 124.471ZM671.837 125.177C666.143 125.948 661.695 128.116 657.787 132.024L655.986 133.826V129.838V125.85H647.064H638.142V161.129V196.409H647.726H657.309L657.443 176.8C657.56 159.557 657.647 156.946 658.164 155.163C660.58 146.838 666.698 143.023 677.69 142.988L681.379 142.976V134.426V125.876L680.092 125.548C678.065 125.03 674.201 124.856 671.837 125.177ZM334.113 127.577C334.113 133.681 337.177 140.282 342.222 145.049C346.806 149.378 350.343 151.468 362.097 156.787C377.203 163.623 378.722 164.885 378.722 170.598C378.722 173.842 377.971 175.596 375.741 177.555C373.531 179.497 371.025 180.345 366.883 180.55C361.151 180.835 356.161 179.305 351.127 175.72C349.049 174.239 344.637 169.855 343.533 168.175C343.216 167.691 342.809 167.295 342.629 167.295C342.45 167.295 339.418 169.479 335.891 172.149C332.365 174.818 329.424 177.045 329.356 177.097C329.001 177.365 332.926 182.58 335.468 185.219C338.658 188.531 341.266 190.615 344.727 192.618C356.705 199.554 373.907 199.8 385.112 193.195C390.021 190.301 393.681 186.457 395.911 181.852C397.98 177.578 398.443 175.392 398.448 169.864C398.452 165.787 398.333 164.683 397.65 162.499C396.369 158.403 394.959 156.097 391.764 152.876C386.933 148.003 382.472 145.365 369.286 139.585C356.997 134.2 354.393 132.194 354.08 127.874L353.933 125.85H344.023H334.113V127.577ZM405.224 148.542L405.344 171.234L406.233 174.491C409.599 186.823 418.228 194.815 431.052 197.477C432.185 197.712 435.196 197.905 437.744 197.905C447.274 197.905 454.194 195.27 460.516 189.237C465.965 184.035 468.982 177.848 469.962 169.864C470.199 167.933 470.341 159.134 470.342 146.315L470.343 125.85H460.577H450.811L450.712 148.199L450.612 170.549L449.55 172.775C448.256 175.488 446.22 177.576 443.633 178.844C442.029 179.63 441.139 179.817 438.543 179.914C431.798 180.167 427.213 177.217 425.392 171.455C424.733 169.371 424.704 168.342 424.704 147.564V125.85H414.904H405.104L405.224 148.542ZM764.078 147.061C764.078 160.407 764.215 169.261 764.449 170.938C766.236 183.764 775.156 193.799 787.522 196.894C795.561 198.907 804.637 198.097 811.604 194.745C818.81 191.277 824.722 184.609 827.228 177.121C829.057 171.655 829.104 170.906 829.104 147.6V126.021L819.424 125.93L809.744 125.839L809.645 148.022L809.545 170.206L808.748 172.175C807.697 174.773 805.058 177.623 802.575 178.84C800.781 179.719 800.303 179.797 796.67 179.797C792.9 179.797 792.61 179.745 790.444 178.68C787.799 177.381 785.985 175.524 784.713 172.816L783.809 170.891L783.713 148.37L783.618 125.85H773.848H764.078V147.061ZM600.567 140.64C606.001 141.999 610.153 146.647 610.89 152.195L611.122 153.936H595.286H579.451L579.668 152.994C579.788 152.477 580.402 150.974 581.033 149.655C584.624 142.152 592.353 138.585 600.567 140.64ZM520.205 142.459C526.329 144.051 531.267 149.21 532.832 155.649C533.499 158.394 533.404 164.6 532.657 167.123C530.102 175.753 522.527 180.966 513.704 180.168C506.492 179.515 500.901 175.082 498.797 168.347C497.804 165.17 497.559 159.692 498.248 156.077C499.541 149.289 504.397 143.948 510.663 142.424C513.076 141.837 517.879 141.854 520.205 142.459ZM910.075 142.473C916.005 144.015 920.757 148.998 922.312 155.306C922.911 157.736 922.91 164.527 922.311 166.952C919.951 176.5 911.125 181.897 901.277 179.814C897.797 179.078 895.279 177.709 892.758 175.182C890.043 172.461 888.473 169.442 887.723 165.505C887.059 162.016 887.283 157.466 888.277 154.252C890.002 148.679 894.834 143.969 900.344 142.49C902.803 141.83 907.57 141.822 910.075 142.473ZM167.343 191.271V209.767H148.984H130.626V191.271V172.775H148.984H167.343V191.271Z" fill="white"/>
</svg>
